<svg id="Layer_1" data-name="Layer 1" xmlns="http://www.w3.org/2000/svg" viewBox="0 0 512 512"><path d="M324.6,421.371s-1.97,19.73-27.62,34.51c-25.15,14.49-56.29,14.98-81.45.52-26.14-15.03-27.08-35.68-27.08-35.68,17.01,3.5,39.84.42,70.44-14.99C287.3,420.031,308.61,423.721,324.6,421.371Z" style="fill:#bc987a"/><path d="M218.714,420.289c-11.719,2.286-21.725,2.189-30.264.432,0,0,.94,20.65,27.08,35.68a80.792,80.792,0,0,0,55,9.211,79.539,79.539,0,0,1-25-9.211C221.986,442.864,219.062,423.92,218.714,420.289Z" style="fill:#9e8069"/><path d="M497.03,90.291c-24.84-61.34-77.18-50.49-103.34-25.08-1.02.99-2.12,2.04-3.28,3.11-13.26,12.28-35.28,28.8-57.24,23.15-56.84-14.6-84.8-15.72-137.66,2.67-28.86,10.03-62.33-14.47-77.2-28.93C92.15,39.8,39.81,28.951,14.97,90.291c-12.21,30.16-11.76,63.951.17,94.22,8.59,21.83,22.18,44.01,45.03,46.93-9.88,46.32-.18,106.84,86.65,153.64,6.61,14.56,18.94,30.96,41.63,35.64,17.01,3.5,39.84.42,70.44-14.99,28.41,14.3,49.72,17.99,65.71,15.64,24.72-3.629,36.71-21.69,42.5-37.25,86.57-46.66,95.94-106.67,85.7-152.68,22.85-2.93,35.47-25.1,44.06-46.93C508.79,154.242,509.24,120.451,497.03,90.291Z" style="fill:#cca783"/><path d="M258.89,361.911c40.65-32.06,52.68,5.58,52.68,5.58-6.91,6.11-17.33,11.75-32.59,16.32.29,1.17-.83,5.36-2.89,10.4a17.963,17.963,0,0,1-17.2,11.52c-9.53-.07-18.96-7.02-18.58-18.86a7.381,7.381,0,0,1,.14-1.33,1.946,1.946,0,0,0-1.33-2.32c-15.35-4.81-25.52-10.74-32-17.11l.01-.01S226.9,328.031,258.89,361.911Z" style="fill:#4d4a4f"/><path d="M186.14,265.181v4.35c-4.51-7.12-14.6-12.92-29.77-12.66-24.4.43-37.99-28.8-37.99-28.8a26.236,26.236,0,0,0,7.56-4.08c8.82-6.85,43.56-23.54,57.16,20.57A69.9,69.9,0,0,1,186.14,265.181Z" style="fill:#e2e4ed"/><path d="M386.06,223.991a26.236,26.236,0,0,0,7.56,4.08s-13.59,29.23-37.99,28.8c-15.17-.26-25.26,5.54-29.77,12.66v-4.35a69.9,69.9,0,0,1,3.04-20.62C342.5,200.451,377.24,217.141,386.06,223.991Z" style="fill:#e2e4ed"/><path d="M176.82,385.081c-86.83-46.8-96.53-107.32-86.65-153.64-22.85-2.92-36.44-25.1-45.03-46.93-11.93-30.269-12.38-64.06-.17-94.22,10.347-25.55,25.466-38.567,41.476-43.232-25.339-6.7-54.688,1.775-71.476,43.232-12.21,30.16-11.76,63.951.17,94.22,8.59,21.83,22.18,44.01,45.03,46.93-9.88,46.32-.18,106.84,86.65,153.64,6.61,14.56,18.94,30.96,41.63,35.64,8.245,1.7,17.863,1.841,29.066-.21C195.425,415.577,183.338,399.439,176.82,385.081Z" style="fill:#b29176"/><path d="M431.54,133.3c13.08-34.71,54.14,3.54,44.59,32.38-8.85,26.68-33.43,35.13-33.43,35.13a198.848,198.848,0,0,0-12.61-24.2,37.344,37.344,0,0,1-2.43-34.38Z" style="fill:#482e1b"/><path d="M81.52,133.3a58.827,58.827,0,0,1-3.09,49.89c-2.74,5.04-5.61,10.81-8.32,17.18-.61-.21-24.45-8.35-33.18-34.69C27.38,136.841,68.44,98.591,81.52,133.3Z" style="fill:#482e1b"/><path d="M186.149,285.946a5,5,0,0,1-5-5l0-15.765a64.955,64.955,0,0,0-2.818-19.147c-4.22-13.685-10.847-22.038-19.7-24.829-12.227-3.853-25.528,3.554-29.619,6.735-11.2,8.71-24.373,6.552-24.927,6.457a5,5,0,0,1,1.681-9.858c.217.034,9.522,1.4,17.107-4.494,6.52-5.069,23.014-13.342,38.765-8.378,12.172,3.837,21,14.409,26.249,31.419a74.99,74.99,0,0,1,3.261,22.092l0,15.764a5,5,0,0,1-5,5Z" style="fill:#b29176"/><path d="M325.851,285.946h0a5,5,0,0,1-5-5l0-15.765a74.988,74.988,0,0,1,3.261-22.091c5.246-17.01,14.077-27.582,26.249-31.419,15.749-4.966,32.244,3.309,38.765,8.378,7.635,5.939,17.019,4.51,17.11,4.493a5,5,0,0,1,1.678,9.859c-.554.095-13.724,2.253-24.927-6.457-4.092-3.182-17.392-10.594-29.619-6.735-8.851,2.791-15.479,11.144-19.7,24.829a64.953,64.953,0,0,0-2.818,19.146l0,15.766A5,5,0,0,1,325.851,285.946Z" style="fill:#b29176"/><path d="M130.738,119.727c-.12,0-.241,0-.363-.013a5,5,0,0,1-4.629-5.344c.028-.412,2.02-31.321-11.141-45.791A5,5,0,1,1,122,61.85c16.075,17.678,13.82,51.792,13.717,53.235A5,5,0,0,1,130.738,119.727Z" style="fill:#b29176"/><path d="M381,113.612a5,5,0,0,1-4.971-4.524c-.127-1.333-2.917-32.823,14.125-47.646a5,5,0,1,1,6.563,7.545c-13.151,11.439-10.758,38.882-10.733,39.157a5,5,0,0,1-4.508,5.445C381.315,113.6,381.155,113.612,381,113.612Z" style="fill:#b29176"/><path d="M224.467,236.44a5.1,5.1,0,0,1-.693-.048,5,5,0,0,1-4.266-5.64c2.6-18.789-8.4-25.3-8.864-25.571a5,5,0,1,1,4.8-8.771c.719.387,17.561,9.8,13.97,35.715A5,5,0,0,1,224.467,236.44Z" style="fill:#b29176"/><path d="M299.512,236.44a5,5,0,0,1-4.947-4.315c-3.591-25.916,13.25-35.328,13.969-35.715a5,5,0,0,1,4.794,8.775c-.56.322-11.45,6.861-8.857,25.567a5,5,0,0,1-4.267,5.64A5.085,5.085,0,0,1,299.512,236.44Z" style="fill:#b29176"/></svg>